# xmcd
#
# Track frame offsets: 
#        150
#        17040
#        33132
#        48016
#        67004
#        85016
#        108640
#        123497
#        141483
#        159112
#        176932
#        193289
#        209328
#        225790
#        246026
#        262287
#        283229
#        299736
#        317774
#        331670
#
# Disc length: 4601 seconds
#
# Revision: 0
# Processed by: cddbd v1.5.2PL0 Copyright (c) Steve Scherf et al.
# Submitted via: ExactAudioCopyFreeDBPlugin 1.0
#
DISCID=2c11f714
DTITLE=Femme des Années 80 - CD 2
DYEAR=2016
DGENRE=Pop
TTITLE0=Ami Stewart - Ami Stewart - Knock on the wood
TTITLE1=Sister Sledge - Sister Sledge - We are family
TTITLE2=Gloria Gaynor - Gloria Gaynor - I will survive
TTITLE3=The Mint Juleps - The Mint Juleps - Every Kinda people
TTITLE4=Karen Cheryl - Karen Cheryl - Ou sont les anges?
TTITLE5=Nicole Croisille - Nicole Croisille - Itinéraire d'un enfant g
TTITLE5=até
TTITLE6=Regrets and Agathe - Regrets and Agathe - Je ne veux pas rentrer c
TTITLE6=hez moi seule
TTITLE7=Kimera and the Operaiders - Kimera and the Operaiders - The la
TTITLE7=st opera
TTITLE8=Esther Galil - Esther Galil - Interdit par la loi
TTITLE9=Louise Tucker - Louise Tucker - Midnight blue
TTITLE10=Lio - Lio - Amoureux solitaires
TTITLE11=Pascale Richard - Pascale Richard - Soir de blues
TTITLE12=Caroline Verdi - Caroline Verdi - Quand je vois rouge
TTITLE13=Claudia Philips and The Kicks - Claudia Philips and The Kicks - Q
TTITLE13=uel souci la Boetie
TTITLE14=Mind - Mind - Assez Super
TTITLE15=Viktor Lazlo - Viktor Lazlo - Canoë rose
TTITLE16=Yanna Kastoulos - Yanna Kastoulos - Les autres sont jaloux
TTITLE17=Caroline Legrand - Caroline Legrand - J'aurais voulu te dire 
TTITLE18=Sandra Kim - Sandra Kim - J'aime la vie
TTITLE19=The Belle Stars - The Belle Stars - Iko iko
EXTD=
EXTT0=
EXTT1=
EXTT2=
EXTT3=
EXTT4=
EXTT5=
EXTT6=
EXTT7=
EXTT8=
EXTT9=
EXTT10=
EXTT11=
EXTT12=
EXTT13=
EXTT14=
EXTT15=
EXTT16=
EXTT17=
EXTT18=
EXTT19=
PLAYORDER=
